<svg width="45" height="62" viewBox="0 0 45 62" fill="none" xmlns="http://www.w3.org/2000/svg">
<path d="M45.0008 17.943C43.8828 19.4579 42.4624 20.7231 40.8302 21.658C39.1979 22.5929 37.3893 23.1772 35.5195 23.3736C33.6497 23.5701 31.7596 23.3744 29.9694 22.799C28.1791 22.2237 26.5279 21.2812 25.1208 20.0316C23.7136 18.782 22.5813 17.2526 21.7959 15.5406C21.0104 13.8286 20.589 11.9716 20.5584 10.0875C20.5279 8.20346 20.8888 6.33365 21.6183 4.59699C22.3478 2.86033 23.4299 1.29481 24.7957 0L45.0008 17.943Z" fill="white"/>
<path d="M6.2494 42.8721C4.66856 41.8588 3.31495 40.5274 2.27434 38.9623C1.23373 37.3972 0.528811 35.6325 0.204235 33.7801C-0.12034 31.9277 -0.0574916 30.0279 0.388799 28.2011C0.83509 26.3743 1.65509 24.6603 2.79685 23.1678C3.93861 21.6752 5.37724 20.4366 7.02158 19.5304C8.66592 18.6242 10.4801 18.0702 12.3493 17.9035C14.2184 17.7369 16.1017 17.9611 17.8798 18.562C19.658 19.163 21.2922 20.1275 22.679 21.3946L6.2494 42.8721Z" fill="white"/>
<path d="M8.32422 44.1607C9.43602 42.6439 10.8502 41.3753 12.477 40.4352C14.1039 39.4952 15.9079 38.9042 17.7746 38.6999C19.6414 38.4956 21.5301 38.6823 23.3211 39.2483C25.112 39.8142 26.7661 40.747 28.1783 41.9875C29.5906 43.228 30.7302 44.7491 31.5249 46.4544C32.3196 48.1596 32.752 50.0118 32.7948 51.8934C32.8375 53.7751 32.4896 55.6451 31.7732 57.3848C31.0568 59.1245 29.9874 60.6961 28.633 61.9997L8.32422 44.1607Z" fill="white"/>
</svg>
